# xmcd CD database file
#
# Track frame offsets:
#        150
#        12522
#        24541
#        38737
#        50824
#        62768
#        72332
#        83910
#        102975
#        141709
#        154922
#        169296
#        179850
#        190980
#        203124
#        241916
#        251580
#        267890
#
# Disc length: 3756 seconds
#
# Revision: 0
# Processed by: cddbd v1.5.2PL0 Copyright (c) Steve Scherf et al.
# Submitted via: CUERipper 2.1.4
#
DISCID=130eaa12
DTITLE=Creedence Clearwater Revival - Anniversary
DYEAR=1996
DGENRE=
TTITLE0=Down on the Corner
TTITLE1=Have You Ever Seen the Rain?
TTITLE2=Proud Mary
TTITLE3=Molina
TTITLE4=Up Around the Bend
TTITLE5=Ooby Dooby
TTITLE6=Green River
TTITLE7=The Midnight Special
TTITLE8=Susie Q
TTITLE9=Cotton Fields
TTITLE10=Lodi
TTITLE11=Fortunate Son
TTITLE12=Who'll Stop the Rain
TTITLE13=Good Golly Miss Molly
TTITLE14=Graveyard Train
TTITLE15=Travelin' Band
TTITLE16=Tombstone Shadow
TTITLE17=Run Through the Jungle
EXTD=
EXTT0=
EXTT1=
EXTT2=
EXTT3=
EXTT4=
EXTT5=
EXTT6=
EXTT7=
EXTT8=
EXTT9=
EXTT10=
EXTT11=
EXTT12=
EXTT13=
EXTT14=
EXTT15=
EXTT16=
EXTT17=
PLAYORDER=
